<?xml version="1.0" encoding="UTF-8"?>
<svg id="Layer_1" data-name="Layer 1" xmlns="http://www.w3.org/2000/svg" viewBox="0 0 252 144">
  <defs>
    <style>
      .cls-1, .cls-2 {
        fill: #fff;
      }

      .cls-3 {
        fill: #141414;
      }

      .cls-2 {
        fill-rule: evenodd;
      }

      .cls-4 {
        fill: #f9db5b;
      }

      .cls-5 {
        fill: #73ccd4;
      }

      .cls-6 {
        fill: #20bec7;
      }

      .cls-7 {
        fill: none;
        stroke: #fff;
        stroke-linecap: round;
        stroke-miterlimit: 10;
        stroke-width: 2px;
      }
    </style>
  </defs>
  <rect id="Background" class="cls-3" width="252" height="144"/>
  <g id="Logo">
    <path class="cls-4" d="M23.52,47.07l6.02,5.87-3.85,3.75c-1.67,1.63-2.27,4.03-1.54,6.25,.72,2.22,2.61,3.81,4.92,4.15l5.39,.78-1.45,8.43c-.41,2.4,.56,4.78,2.52,6.21,1.97,1.43,4.53,1.62,6.68,.48l7.53-3.96,2.37,4.8c1.04,2.1,3.13,3.4,5.47,3.4,2.34,0,4.43-1.3,5.47-3.4l2.37-4.8,7.53,3.96c.91,.48,1.93,.73,2.96,.73,1.34,0,2.63-.42,3.73-1.22,1.97-1.43,2.94-3.81,2.52-6.21l-1.45-8.43,5.39-.78c2.31-.34,4.2-1.93,4.92-4.15,.72-2.22,.13-4.62-1.54-6.25l-3.85-3.75,6.02-5.87c1.74-1.7,2.36-4.19,1.61-6.5-.75-2.31-2.71-3.97-5.12-4.32l-8.4-1.22,.93-5.44c.4-2.3-.53-4.59-2.43-5.97-1.05-.76-2.29-1.17-3.58-1.17-.98,0-1.96,.24-2.84,.7l-4.84,2.55-3.72-7.53c-1.08-2.18-3.26-3.54-5.69-3.54-2.43,0-4.61,1.36-5.69,3.54l-3.72,7.53-4.84-2.55c-.9-.47-1.87-.71-2.84-.71-1.26,0-2.51,.39-3.58,1.17-1.89,1.37-2.82,3.66-2.43,5.97l.93,5.44-8.4,1.22c-2.41,.35-4.37,2-5.12,4.32-.75,2.31-.14,4.81,1.61,6.51Zm.96-5.67c.43-1.33,1.56-2.28,2.94-2.48l11.14-1.62-1.4-8.17c-.22-1.28,.3-2.56,1.35-3.33,1.05-.77,2.43-.87,3.58-.26l7.29,3.84,4.94-10.01h0c.62-1.25,1.87-2.03,3.27-2.03,1.4,0,2.65,.78,3.27,2.03l4.94,10.01,7.29-3.84c.5-.26,1.04-.39,1.59-.39,.7,0,1.4,.22,1.99,.65,1.05,.77,1.57,2.04,1.35,3.33l-1.4,8.17,11.14,1.62c1.38,.2,2.51,1.15,2.94,2.48,.43,1.33,.08,2.76-.92,3.74l-8,7.8,5.83,5.68c.93,.91,1.26,2.25,.86,3.49-.4,1.24-1.45,2.13-2.74,2.31l-8.13,1.18,1.91,11.16c.24,1.38-.32,2.74-1.45,3.57-.64,.46-1.39,.7-2.14,.7-.58,0-1.16-.14-1.7-.42l-9.98-5.25-3.6,7.29c-.58,1.17-1.74,1.89-3.05,1.9-1.3,0-2.47-.73-3.05-1.89h0s-3.6-7.29-3.6-7.29l-9.98,5.25c-1.24,.65-2.71,.54-3.84-.28-1.13-.82-1.69-2.19-1.45-3.57l1.91-11.16-8.13-1.18c-1.29-.19-2.34-1.07-2.74-2.31-.4-1.24-.07-2.58,.86-3.49l5.83-5.68-8-7.8c-1-.98-1.35-2.41-.92-3.74Z"/>
    <g>
      <path class="cls-5" d="M47.42,63.4l-5.39-.78-.61,3.55,5.38,.78,2.45,4.96,3.19-1.68-2.45-4.97c-.5-1-1.45-1.7-2.56-1.86Z"/>
      <path class="cls-5" d="M57.6,37.33c.54,0,1.09-.13,1.58-.39l4.8-2.53-1.59-3.23-4.79,2.52-4.79-2.52-1.59,3.23,4.8,2.53c.5,.26,1.04,.39,1.58,.39Z"/>
      <path class="cls-5" d="M36.18,50.25l2.58,2.51,3.96-3.86c.8-.78,1.17-1.91,.98-3.01l-.91-5.3-3.56,.52,.91,5.29-3.95,3.85Z"/>
      <path class="cls-5" d="M65.22,65.26l-2.45,4.97,3.19,1.68,2.45-4.96,5.38-.78-.61-3.55-5.39,.78c-1.11,.16-2.06,.86-2.56,1.86Z"/>
      <path class="cls-5" d="M72.49,48.9l3.96,3.86,2.58-2.51-3.95-3.85,.91-5.29-3.56-.52-.91,5.3c-.19,1.1,.18,2.23,.98,3.01Z"/>
      <path class="cls-5" d="M35.53,61.67l-5.15-.75,3.67-3.58,1.93-1.89-2.58-2.51-5.83,5.68c-.93,.91-1.26,2.25-.86,3.49,.4,1.24,1.45,2.13,2.74,2.31l8.13,1.18,.61-3.55-2.67-.39Z"/>
      <path class="cls-5" d="M69.79,31.36l4.63-2.43-.89,5.2-.46,2.66,3.56,.52,1.4-8.17c.22-1.28-.3-2.56-1.35-3.33-.6-.43-1.29-.65-1.99-.65-.54,0-1.08,.13-1.59,.39l-7.29,3.84,1.59,3.23,2.39-1.26Z"/>
      <path class="cls-5" d="M81.15,57.34l3.67,3.58-5.15,.75-2.67,.39,.61,3.55,8.13-1.18c1.29-.19,2.34-1.07,2.74-2.31,.4-1.24,.07-2.58-.86-3.49l-5.83-5.68-2.58,2.51,1.93,1.89Z"/>
      <path class="cls-5" d="M59.86,76.11l-2.26,4.58-2.26-4.58-1.2-2.42-3.19,1.68,3.6,7.29h0c.58,1.17,1.75,1.9,3.05,1.9,1.3,0,2.47-.73,3.05-1.9l3.6-7.29-3.19-1.68-1.2,2.42Z"/>
      <path class="cls-5" d="M41.67,34.12l-.89-5.2,4.63,2.43,2.39,1.26,1.59-3.23-7.29-3.84c-1.15-.61-2.53-.51-3.58,.26-1.05,.77-1.57,2.04-1.35,3.33l1.4,8.17,3.56-.52-.46-2.66Z"/>
    </g>
    <path class="cls-6" d="M33.41,52.94l2.58,2.51,2.87,2.8-.65,3.8-.61,3.55-1.91,11.16c-.24,1.38,.32,2.74,1.45,3.57,1.13,.82,2.6,.93,3.84,.28l9.98-5.25,3.19-1.68,3.46-1.82,3.46,1.82,3.19,1.68,9.98,5.25c.54,.28,1.12,.42,1.7,.42,.75,0,1.5-.24,2.14-.7,1.13-.82,1.69-2.19,1.45-3.57l-1.91-11.16-.61-3.55-.65-3.8,2.87-2.8,2.58-2.51,8-7.8c1-.98,1.35-2.41,.92-3.74-.43-1.33-1.56-2.28-2.94-2.48l-11.14-1.62-3.56-.52-3.89-.57-1.78-3.61-1.59-3.23-4.94-10.01c-.62-1.25-1.87-2.03-3.27-2.03-1.4,0-2.65,.78-3.27,2.03h0s-4.94,10.01-4.94,10.01l-1.59,3.23-1.78,3.61-3.89,.57-3.56,.52-11.14,1.62c-1.38,.2-2.51,1.15-2.94,2.48-.43,1.33-.08,2.76,.92,3.74l8,7.8Zm3.13-11.44l2.67-.39,3.56-.52,3.9-.57c1.19-.17,2.21-.92,2.75-1.99l1.79-3.62,1.59-3.23,1.19-2.42,3.6-7.29,3.6,7.29,1.19,2.42,1.59,3.23,1.79,3.62c.53,1.08,1.56,1.82,2.74,1.99l3.9,.57,3.56,.52,2.67,.39,8.13,1.18-5.83,5.68-1.93,1.88-2.58,2.51-2.88,2.81c-.86,.84-1.25,2.04-1.05,3.23l.65,3.82,.61,3.55,.46,2.66,1.4,8.17-7.29-3.83-2.39-1.26-3.19-1.68-3.47-1.82c-.53-.28-1.11-.42-1.7-.42s-1.17,.14-1.7,.42l-3.47,1.82-3.19,1.68-2.39,1.26-7.29,3.83,1.4-8.17,.46-2.66,.61-3.55,.65-3.82c.2-1.18-.19-2.39-1.05-3.23l-2.88-2.81-2.58-2.51-1.93-1.88-5.83-5.68,8.13-1.18Z"/>
  </g>
  <g>
    <path class="cls-1" d="M32.8,106.72h-3.91v10.59h-3.14v-10.59h-3.84v-2.42h10.88v2.42Z"/>
    <path class="cls-1" d="M31.75,112.39c0-.97,.19-1.83,.56-2.58s.91-1.33,1.62-1.74c.7-.41,1.53-.61,2.48-.61,1.45,0,2.59,.45,3.42,1.34,.83,.9,1.25,2.12,1.25,3.66v.11c0,1.51-.42,2.7-1.26,3.59-.84,.88-1.97,1.33-3.4,1.33s-2.48-.41-3.32-1.24c-.83-.83-1.28-1.94-1.35-3.36v-.51Zm3,.19c0,.89,.14,1.55,.42,1.97,.28,.42,.69,.63,1.24,.63,1.07,0,1.62-.83,1.65-2.48v-.3c0-1.73-.55-2.6-1.66-2.6-1.01,0-1.55,.75-1.64,2.24v.54Z"/>
    <path class="cls-1" d="M51.39,112.56c0,1.58-.33,2.8-.98,3.66-.66,.85-1.58,1.28-2.77,1.28-.98,0-1.78-.39-2.38-1.17l-.13,.99h-2.7v-13.73h3.01v4.84c.56-.64,1.28-.96,2.17-.96,1.2,0,2.13,.43,2.79,1.3,.66,.86,.98,2.08,.98,3.65v.15Zm-3.02-.19c0-.93-.12-1.59-.37-1.99-.25-.4-.63-.59-1.14-.59-.68,0-1.15,.26-1.41,.78v3.84c.26,.51,.73,.77,1.43,.77s1.16-.34,1.35-1.04c.1-.34,.14-.93,.14-1.77Z"/>
    <path class="cls-1" d="M56.48,113.09l1.61-5.45h3.23l-3.94,11.29-.17,.41c-.56,1.25-1.55,1.88-2.97,1.88-.39,0-.81-.06-1.24-.18v-2.15h.39c.42,0,.75-.06,.97-.18,.22-.12,.39-.34,.5-.66l.24-.64-3.36-9.77h3.22l1.53,5.45Z"/>
    <path class="cls-1" d="M77.33,112.9c-.04,.91-.29,1.71-.73,2.4-.45,.69-1.07,1.23-1.88,1.61-.81,.38-1.73,.57-2.77,.57-1.71,0-3.06-.56-4.04-1.67-.98-1.11-1.48-2.69-1.48-4.72v-.64c0-1.28,.22-2.39,.67-3.35,.44-.96,1.08-1.7,1.92-2.22,.83-.52,1.8-.78,2.9-.78,1.58,0,2.85,.42,3.81,1.25,.96,.83,1.5,1.98,1.64,3.44h-3.13c-.02-.79-.22-1.36-.6-1.71s-.95-.52-1.72-.52-1.35,.29-1.72,.88c-.36,.58-.55,1.52-.57,2.8v.92c0,1.39,.17,2.38,.52,2.98s.95,.89,1.8,.89c.72,0,1.27-.17,1.65-.51s.58-.88,.61-1.62h3.12Z"/>
    <path class="cls-1" d="M81.52,107.64l.1,1.13c.69-.88,1.61-1.31,2.76-1.31,1.22,0,2.05,.49,2.48,1.46,.66-.97,1.6-1.46,2.84-1.46,1.96,0,2.97,1.19,3.02,3.56v6.29h-3.02v-6.11c0-.49-.08-.85-.25-1.08-.17-.23-.47-.34-.91-.34-.6,0-1.04,.26-1.33,.8v.12s0,6.61,0,6.61h-3.02v-6.09c0-.51-.08-.87-.24-1.1-.16-.23-.47-.34-.92-.34-.58,0-1.02,.26-1.32,.8v6.73h-3.01v-9.67h2.83Z"/>
  </g>
  <line id="Divider" class="cls-7" x1="126" y1="16.2" x2="126" y2="124.2"/>
  <g id="Socials">
    <g id="Icons">
      <g id="Facebook">
        <path class="cls-1" d="M151.2,120.64c0-3.98-3.22-7.2-7.2-7.2s-7.2,3.22-7.2,7.2c0,3.59,2.63,6.57,6.07,7.11v-5.03h-1.83v-2.08h1.83v-1.59c0-1.8,1.07-2.8,2.72-2.8,.79,0,1.61,.14,1.61,.14v1.77h-.91c-.89,0-1.17,.56-1.17,1.12v1.35h2l-.32,2.08h-1.68v5.03c3.44-.54,6.07-3.52,6.07-7.11Z"/>
      </g>
      <path id="Youtube" class="cls-1" d="M150.9,17.82c-.17-.62-.65-1.11-1.27-1.27-1.12-.3-5.63-.3-5.63-.3,0,0-4.5,0-5.63,.3-.62,.17-1.11,.65-1.27,1.27-.3,1.12-.3,3.47-.3,3.47,0,0,0,2.34,.3,3.47,.17,.62,.65,1.11,1.27,1.27,1.12,.3,5.63,.3,5.63,.3,0,0,4.5,0,5.63-.3,.62-.17,1.11-.65,1.27-1.27,.3-1.12,.3-3.47,.3-3.47,0,0,0-2.34-.3-3.47Zm-8.34,5.63v-4.32l3.74,2.16-3.74,2.16Z"/>
      <path id="Twitter" class="cls-1" d="M149.73,97.46c0,.13,0,.25,0,.38,0,3.9-2.97,8.41-8.41,8.41h0c-1.61,0-3.18-.46-4.53-1.33,.23,.03,.47,.04,.7,.04,1.33,0,2.62-.44,3.67-1.27-1.26-.02-2.37-.85-2.76-2.05,.44,.09,.9,.07,1.33-.05-1.38-.28-2.37-1.49-2.37-2.9v-.04c.41,.23,.87,.36,1.34,.37-1.3-.87-1.7-2.59-.91-3.94,1.5,1.85,3.71,2.97,6.09,3.09-.24-1.03,.09-2.1,.85-2.82,1.19-1.12,3.06-1.06,4.18,.13,.66-.13,1.3-.37,1.88-.72-.22,.68-.68,1.26-1.3,1.63,.59-.07,1.16-.23,1.7-.46-.4,.59-.9,1.11-1.47,1.53Z"/>
      <g id="Twitch">
        <g id="Layer_1-2" data-name="Layer 1-2">
          <path class="cls-1" d="M140.4,72.94l-2.57,2.57v9.26h3.09v2.57l2.57-2.57h2.06l4.63-4.63v-7.2h-9.77Zm8.74,6.69l-2.06,2.06h-2.06l-1.8,1.8v-1.8h-2.31v-7.71h8.23v5.66Z"/>
          <rect class="cls-1" x="146.57" y="75.77" width="1.03" height="3.09"/>
          <rect class="cls-1" x="143.74" y="75.77" width="1.03" height="3.09"/>
        </g>
      </g>
      <path id="Discord" class="cls-1" d="M148.99,34.43c-.92-.42-1.9-.73-2.93-.91-.02,0-.04,0-.05,.02-.13,.23-.27,.52-.36,.75-1.11-.17-2.21-.17-3.29,0-.1-.24-.24-.52-.37-.75,0-.02-.03-.03-.05-.02-1.03,.18-2.01,.49-2.93,.91,0,0-.01,0-.02,.02-1.87,2.79-2.38,5.51-2.13,8.2,0,.01,0,.03,.02,.03,1.23,.9,2.42,1.45,3.6,1.82,.02,0,.04,0,.05-.02,.28-.38,.52-.78,.74-1.2,.01-.02,0-.05-.02-.06-.39-.15-.76-.33-1.12-.54-.03-.02-.03-.06,0-.08,.08-.06,.15-.12,.22-.17,.01-.01,.03-.01,.05,0,2.36,1.08,4.91,1.08,7.24,0,.02,0,.03,0,.05,0,.07,.06,.15,.12,.22,.18,.03,.02,.02,.06,0,.08-.36,.21-.73,.39-1.12,.53-.03,0-.04,.04-.02,.06,.22,.42,.46,.82,.74,1.2,.01,.02,.03,.02,.05,.02,1.18-.36,2.37-.91,3.6-1.82,.01,0,.02-.02,.02-.03,.3-3.11-.5-5.8-2.13-8.2,0,0-.01-.01-.02-.02Zm-7.38,6.58c-.71,0-1.29-.65-1.29-1.45s.57-1.45,1.29-1.45,1.31,.66,1.29,1.45c0,.8-.57,1.45-1.29,1.45Zm4.78,0c-.71,0-1.29-.65-1.29-1.45s.57-1.45,1.29-1.45,1.31,.66,1.29,1.45c0,.8-.57,1.45-1.29,1.45Z"/>
      <path id="GitHub" class="cls-2" d="M144,51.7c-3.98,0-7.2,3.22-7.2,7.2,0,3.18,2.06,5.88,4.92,6.83,.36,.07,.49-.16,.49-.35,0-.17,0-.62,0-1.22-2,.44-2.43-.97-2.43-.97-.33-.83-.8-1.05-.8-1.05-.65-.45,.05-.44,.05-.44,.72,.05,1.1,.74,1.1,.74,.64,1.1,1.69,.78,2.1,.6,.07-.47,.25-.78,.46-.96-1.6-.18-3.28-.8-3.28-3.56,0-.79,.28-1.43,.74-1.93-.07-.18-.32-.91,.07-1.91,0,0,.6-.19,1.98,.74,.57-.16,1.19-.24,1.8-.24,.61,0,1.23,.08,1.8,.24,1.37-.93,1.98-.74,1.98-.74,.39,.99,.15,1.72,.07,1.91,.46,.5,.74,1.15,.74,1.93,0,2.77-1.68,3.37-3.29,3.55,.26,.22,.49,.66,.49,1.33,0,.96,0,1.74,0,1.98,0,.19,.13,.42,.5,.35,2.86-.95,4.92-3.65,4.92-6.83,0-3.98-3.22-7.2-7.2-7.2Z"/>
    </g>
    <g id="Text">
      <g>
        <path class="cls-1" d="M164.9,18.58h-1.88v5.18h-1.04v-5.18h-1.86v-.84h4.78v.84Z"/>
        <path class="cls-1" d="M164.54,21.48c0-.44,.09-.83,.26-1.19s.42-.62,.73-.81,.68-.28,1.08-.28c.6,0,1.09,.19,1.47,.58,.38,.39,.58,.9,.61,1.55v.24c0,.44-.08,.84-.25,1.18-.17,.35-.41,.62-.73,.81-.32,.19-.68,.29-1.09,.29-.63,0-1.14-.21-1.52-.63-.38-.42-.57-.98-.57-1.68v-.05Zm1,.09c0,.46,.1,.82,.29,1.08,.19,.26,.46,.39,.79,.39s.6-.13,.79-.4c.19-.26,.28-.65,.28-1.16,0-.45-.1-.81-.29-1.08-.19-.26-.46-.4-.79-.4s-.59,.13-.78,.39c-.19,.26-.29,.65-.29,1.17Z"/>
        <path class="cls-1" d="M173.48,21.57c0,.7-.16,1.25-.47,1.66-.31,.41-.74,.62-1.28,.62s-.93-.19-1.22-.57l-.05,.48h-.91v-6.35h1.01v2.31c.29-.34,.68-.51,1.17-.51,.55,0,.97,.2,1.29,.61,.31,.41,.47,.97,.47,1.7v.06Zm-1-.09c0-.49-.09-.85-.26-1.09-.17-.24-.42-.36-.75-.36-.44,0-.74,.19-.92,.57v1.85c.18,.39,.49,.58,.93,.58,.31,0,.56-.12,.73-.35s.26-.59,.27-1.06v-.13Z"/>
        <path class="cls-1" d="M175.84,22.32l.91-3.04h1.07l-1.78,5.16c-.27,.75-.74,1.13-1.39,1.13-.15,0-.31-.02-.48-.08v-.78h.19c.25,.01,.45-.03,.57-.13,.13-.09,.23-.25,.3-.47l.15-.38-1.57-4.45h1.08l.95,3.04Z"/>
        <path class="cls-1" d="M185.21,21.8c-.06,.64-.3,1.14-.71,1.5s-.96,.54-1.65,.54c-.48,0-.9-.11-1.27-.34s-.65-.55-.85-.97c-.2-.42-.3-.91-.31-1.46v-.56c0-.57,.1-1.07,.3-1.5,.2-.43,.49-.77,.87-1,.38-.23,.81-.35,1.31-.35,.66,0,1.2,.18,1.6,.54,.41,.36,.64,.87,.71,1.53h-1.04c-.05-.43-.18-.75-.38-.94-.2-.19-.5-.29-.89-.29-.46,0-.8,.17-1.05,.5-.24,.33-.37,.82-.38,1.46v.53c0,.65,.12,1.15,.35,1.49,.23,.34,.57,.51,1.02,.51,.41,0,.72-.09,.93-.28,.21-.18,.34-.49,.39-.92h1.04Z"/>
        <path class="cls-1" d="M186.99,19.28l.03,.47c.31-.37,.75-.55,1.29-.55,.6,0,1.01,.23,1.23,.69,.33-.46,.78-.69,1.37-.69,.49,0,.86,.14,1.1,.41,.24,.27,.36,.68,.37,1.21v2.94h-1.01v-2.91c0-.28-.06-.49-.19-.62-.12-.13-.33-.2-.62-.2-.23,0-.42,.06-.56,.18-.15,.12-.25,.28-.3,.48v3.07s-1,0-1,0v-2.95c-.01-.53-.28-.79-.81-.79-.4,0-.69,.16-.86,.49v3.24h-1.01v-4.48h.95Z"/>
      </g>
      <g>
        <path class="cls-1" d="M161.7,35.92v1.09h.79v.74h-.79v2.5c0,.17,.03,.29,.1,.37,.07,.08,.19,.11,.36,.11,.12,0,.23-.01,.35-.04v.78c-.23,.06-.45,.09-.66,.09-.77,0-1.16-.43-1.16-1.28v-2.54h-.74v-.74h.74v-1.09h1Z"/>
        <path class="cls-1" d="M162.95,39.21c0-.44,.09-.83,.26-1.19s.42-.62,.73-.81,.68-.28,1.08-.28c.6,0,1.09,.19,1.47,.58,.38,.39,.58,.9,.61,1.55v.24c0,.44-.08,.84-.25,1.18-.17,.35-.41,.62-.73,.81-.32,.19-.68,.29-1.09,.29-.63,0-1.14-.21-1.52-.63-.38-.42-.57-.98-.57-1.68v-.05Zm1,.09c0,.46,.1,.82,.29,1.08,.19,.26,.46,.39,.79,.39s.6-.13,.79-.4c.19-.26,.28-.65,.28-1.16,0-.45-.1-.81-.29-1.08-.19-.26-.46-.4-.79-.4s-.59,.13-.78,.39c-.19,.26-.29,.65-.29,1.17Z"/>
        <path class="cls-1" d="M171.89,39.29c0,.7-.16,1.25-.47,1.66-.31,.41-.74,.62-1.28,.62s-.93-.19-1.22-.57l-.05,.48h-.91v-6.35h1.01v2.31c.29-.34,.68-.51,1.17-.51,.55,0,.97,.2,1.29,.61,.31,.41,.47,.97,.47,1.7v.06Zm-1-.09c0-.49-.09-.85-.26-1.09-.17-.24-.42-.36-.75-.36-.44,0-.74,.19-.92,.57v1.85c.18,.39,.49,.58,.93,.58,.31,0,.56-.12,.73-.35s.26-.59,.27-1.06v-.13Z"/>
        <path class="cls-1" d="M174.25,40.05l.91-3.04h1.07l-1.78,5.16c-.27,.75-.74,1.13-1.39,1.13-.15,0-.31-.02-.48-.08v-.78h.19c.25,.01,.45-.03,.57-.13,.13-.09,.23-.25,.3-.47l.15-.38-1.57-4.45h1.08l.95,3.04Z"/>
        <path class="cls-1" d="M178.6,40.77c.25,0,.46-.07,.62-.22,.17-.15,.25-.33,.26-.54h.95c-.01,.28-.1,.54-.26,.78-.16,.24-.38,.43-.66,.57s-.58,.21-.9,.21c-.63,0-1.12-.2-1.49-.61s-.55-.97-.55-1.68v-.1c0-.68,.18-1.23,.55-1.64s.86-.61,1.49-.61c.53,0,.97,.15,1.3,.47,.34,.31,.51,.72,.53,1.22h-.95c-.01-.26-.1-.47-.26-.63s-.37-.25-.63-.25c-.33,0-.58,.12-.75,.35-.18,.24-.27,.59-.27,1.07v.16c0,.49,.09,.85,.26,1.09,.18,.24,.43,.36,.76,.36Z"/>
        <path class="cls-1" d="M182.14,37.01l.03,.47c.31-.37,.75-.55,1.29-.55,.6,0,1.01,.23,1.23,.69,.33-.46,.78-.69,1.37-.69,.49,0,.86,.14,1.1,.41,.24,.27,.36,.68,.37,1.21v2.94h-1.01v-2.91c0-.28-.06-.49-.19-.62-.12-.13-.33-.2-.62-.2-.23,0-.42,.06-.56,.18-.15,.12-.25,.28-.3,.48v3.07s-1,0-1,0v-2.95c-.01-.53-.28-.79-.81-.79-.4,0-.69,.16-.86,.49v3.24h-1.01v-4.48h.95Z"/>
        <path class="cls-1" d="M191.03,39.79h-.93l-.31,1.7h-.7l.31-1.7h-.96v-.65h1.08l.24-1.3h-1v-.65h1.13l.32-1.72h.69l-.32,1.72h.93l.32-1.72h.69l-.32,1.72h.86v.65h-.99l-.24,1.3h.91v.65h-1.04l-.31,1.7h-.69l.31-1.7Zm-.8-.65h.93l.24-1.3h-.93l-.24,1.3Z"/>
        <path class="cls-1" d="M197.68,36.02l-2.41,5.47h-1.05l2.4-5.22h-3.12v-.81h4.17v.56Z"/>
        <path class="cls-1" d="M199.65,38.02h.61c.31,0,.55-.08,.73-.24s.27-.38,.27-.68-.08-.51-.23-.67-.38-.24-.69-.24c-.27,0-.49,.08-.67,.23s-.26,.36-.26,.61h-1c0-.31,.08-.59,.25-.84s.39-.45,.69-.59c.29-.14,.62-.21,.99-.21,.6,0,1.07,.15,1.42,.45,.34,.3,.51,.72,.51,1.26,0,.27-.09,.52-.26,.76-.17,.24-.39,.42-.67,.54,.33,.11,.58,.29,.75,.53,.17,.24,.26,.53,.26,.87,0,.54-.19,.97-.56,1.29-.37,.32-.86,.48-1.46,.48s-1.05-.15-1.42-.46c-.37-.31-.55-.72-.55-1.23h1c0,.26,.09,.48,.27,.65,.18,.17,.42,.25,.72,.25s.56-.08,.74-.25c.18-.17,.27-.41,.27-.72s-.09-.56-.28-.73c-.19-.17-.47-.26-.84-.26h-.59v-.79Z"/>
        <path class="cls-1" d="M206.16,38.97c-.34,.36-.73,.53-1.18,.53-.53,0-.95-.19-1.27-.56-.31-.37-.47-.86-.47-1.46,0-.4,.08-.76,.24-1.08,.16-.32,.39-.57,.68-.75,.29-.18,.64-.27,1.03-.27,.61,0,1.09,.23,1.44,.68,.36,.45,.53,1.06,.53,1.82v.28c0,1.09-.25,1.92-.74,2.49-.49,.57-1.22,.86-2.2,.87h-.12v-.83h.14c.59,0,1.05-.15,1.37-.43,.32-.28,.5-.71,.53-1.28Zm-.97-.25c.2,0,.39-.06,.57-.17s.31-.28,.41-.48v-.39c0-.44-.09-.8-.27-1.07-.18-.27-.42-.41-.71-.41s-.52,.12-.69,.36c-.17,.24-.26,.54-.26,.9s.09,.68,.26,.91c.17,.23,.41,.35,.69,.35Z"/>
        <path class="cls-1" d="M208.39,38.5l.33-3.04h3.24v.87h-2.4l-.17,1.44c.28-.16,.59-.24,.94-.24,.57,0,1.02,.18,1.34,.55,.32,.37,.48,.86,.48,1.48s-.18,1.1-.53,1.46c-.35,.36-.84,.54-1.45,.54-.55,0-1.01-.16-1.37-.47-.36-.31-.56-.73-.59-1.24h.97c.04,.29,.14,.52,.31,.67s.39,.23,.67,.23c.31,0,.55-.11,.72-.33,.17-.22,.26-.52,.26-.9s-.09-.66-.29-.87-.45-.32-.79-.32c-.18,0-.34,.02-.46,.07s-.26,.14-.41,.28l-.8-.2Z"/>
      </g>
      <g>
        <path class="cls-1" d="M161.7,55.63v1.09h.79v.74h-.79v2.5c0,.17,.03,.29,.1,.37,.07,.08,.19,.11,.36,.11,.12,0,.23-.01,.35-.04v.78c-.23,.06-.45,.09-.66,.09-.77,0-1.16-.43-1.16-1.28v-2.54h-.74v-.74h.74v-1.09h1Z"/>
        <path class="cls-1" d="M162.95,58.92c0-.44,.09-.83,.26-1.19s.42-.62,.73-.81,.68-.28,1.08-.28c.6,0,1.09,.19,1.47,.58,.38,.39,.58,.9,.61,1.55v.24c0,.44-.08,.84-.25,1.18-.17,.35-.41,.62-.73,.81-.32,.19-.68,.29-1.09,.29-.63,0-1.14-.21-1.52-.63-.38-.42-.57-.98-.57-1.68v-.05Zm1,.09c0,.46,.1,.82,.29,1.08,.19,.26,.46,.39,.79,.39s.6-.13,.79-.4c.19-.26,.28-.65,.28-1.16,0-.45-.1-.81-.29-1.08-.19-.26-.46-.4-.79-.4s-.59,.13-.78,.39c-.19,.26-.29,.65-.29,1.17Z"/>
        <path class="cls-1" d="M171.89,59c0,.7-.16,1.25-.47,1.66-.31,.41-.74,.62-1.28,.62s-.93-.19-1.22-.57l-.05,.48h-.91v-6.35h1.01v2.31c.29-.34,.68-.51,1.17-.51,.55,0,.97,.2,1.29,.61,.31,.41,.47,.97,.47,1.7v.06Zm-1-.09c0-.49-.09-.85-.26-1.09-.17-.24-.42-.36-.75-.36-.44,0-.74,.19-.92,.57v1.85c.18,.39,.49,.58,.93,.58,.31,0,.56-.12,.73-.35s.26-.59,.27-1.06v-.13Z"/>
        <path class="cls-1" d="M174.25,59.76l.91-3.04h1.07l-1.78,5.16c-.27,.75-.74,1.13-1.39,1.13-.15,0-.31-.02-.48-.08v-.78h.19c.25,.01,.45-.03,.57-.13,.13-.09,.23-.25,.3-.47l.15-.38-1.57-4.45h1.08l.95,3.04Z"/>
        <path class="cls-1" d="M178.6,60.48c.25,0,.46-.07,.62-.22,.17-.15,.25-.33,.26-.54h.95c-.01,.28-.1,.54-.26,.78-.16,.24-.38,.43-.66,.57s-.58,.21-.9,.21c-.63,0-1.12-.2-1.49-.61s-.55-.97-.55-1.68v-.1c0-.68,.18-1.23,.55-1.64s.86-.61,1.49-.61c.53,0,.97,.15,1.3,.47,.34,.31,.51,.72,.53,1.22h-.95c-.01-.26-.1-.47-.26-.63s-.37-.25-.63-.25c-.33,0-.58,.12-.75,.35-.18,.24-.27,.59-.27,1.07v.16c0,.49,.09,.85,.26,1.09,.18,.24,.43,.36,.76,.36Z"/>
        <path class="cls-1" d="M182.14,56.72l.03,.47c.31-.37,.75-.55,1.29-.55,.6,0,1.01,.23,1.23,.69,.33-.46,.78-.69,1.37-.69,.49,0,.86,.14,1.1,.41,.24,.27,.36,.68,.37,1.21v2.94h-1.01v-2.91c0-.28-.06-.49-.19-.62-.12-.13-.33-.2-.62-.2-.23,0-.42,.06-.56,.18-.15,.12-.25,.28-.3,.48v3.07s-1,0-1,0v-2.95c-.01-.53-.28-.79-.81-.79-.4,0-.69,.16-.86,.49v3.24h-1.01v-4.48h.95Z"/>
      </g>
      <g>
        <path class="cls-1" d="M161.71,77.05v1.09h.79v.75h-.79v2.5c0,.17,.03,.29,.1,.37s.19,.11,.36,.11c.12,0,.23-.01,.35-.04v.78c-.23,.06-.45,.09-.66,.09-.77,0-1.16-.43-1.16-1.28v-2.54h-.74v-.75h.74v-1.09h1Z"/>
        <path class="cls-1" d="M162.95,80.34c0-.44,.09-.83,.26-1.19s.42-.62,.73-.81c.31-.19,.68-.28,1.08-.28,.6,0,1.09,.19,1.47,.58,.38,.39,.58,.9,.61,1.55v.24c0,.44-.08,.84-.25,1.18-.17,.35-.41,.62-.73,.81-.32,.19-.68,.29-1.09,.29-.63,0-1.14-.21-1.52-.63-.38-.42-.57-.98-.57-1.68v-.05Zm1,.09c0,.46,.1,.82,.29,1.08,.19,.26,.46,.39,.79,.39s.6-.13,.79-.4c.19-.26,.28-.65,.28-1.16,0-.45-.1-.81-.29-1.08-.19-.26-.46-.4-.79-.4s-.59,.13-.78,.39c-.19,.26-.29,.65-.29,1.17Z"/>
        <path class="cls-1" d="M171.89,80.43c0,.7-.16,1.25-.47,1.66-.31,.41-.74,.62-1.28,.62s-.93-.19-1.22-.57l-.05,.48h-.91v-6.35h1.01v2.31c.29-.34,.68-.51,1.17-.51,.55,0,.97,.2,1.29,.61,.31,.41,.47,.97,.47,1.7v.06Zm-1-.09c0-.49-.09-.85-.26-1.09-.17-.24-.42-.36-.75-.36-.44,0-.74,.19-.92,.57v1.85c.18,.39,.49,.58,.93,.58,.31,0,.56-.12,.73-.35s.26-.59,.27-1.06v-.13Z"/>
        <path class="cls-1" d="M174.25,81.18l.91-3.04h1.07l-1.78,5.16c-.27,.75-.74,1.13-1.39,1.13-.15,0-.31-.03-.48-.08v-.78h.19c.25,.01,.45-.03,.57-.13,.13-.09,.23-.25,.3-.47l.15-.38-1.57-4.45h1.08l.95,3.04Z"/>
        <path class="cls-1" d="M178.6,81.9c.25,0,.46-.07,.62-.22,.17-.15,.25-.33,.26-.54h.95c-.01,.28-.1,.54-.26,.78-.16,.24-.38,.43-.66,.57s-.58,.21-.9,.21c-.63,0-1.12-.2-1.49-.61s-.55-.96-.55-1.68v-.1c0-.68,.18-1.23,.55-1.64,.36-.41,.86-.61,1.49-.61,.53,0,.97,.15,1.3,.46,.34,.31,.51,.72,.53,1.22h-.95c-.01-.26-.1-.47-.26-.63-.16-.17-.37-.25-.63-.25-.33,0-.58,.12-.75,.35-.18,.24-.27,.59-.27,1.07v.16c0,.49,.09,.85,.26,1.09,.18,.24,.43,.36,.76,.36Z"/>
        <path class="cls-1" d="M182.14,78.14l.03,.47c.31-.37,.75-.55,1.29-.55,.6,0,1.01,.23,1.23,.69,.33-.46,.78-.69,1.37-.69,.49,0,.86,.14,1.1,.41s.36,.68,.37,1.21v2.94h-1.01v-2.91c0-.28-.06-.49-.19-.62s-.33-.2-.62-.2c-.23,0-.42,.06-.56,.18-.15,.12-.25,.28-.3,.48v3.07s-1,0-1,0v-2.95c-.01-.53-.28-.79-.81-.79-.4,0-.69,.16-.86,.49v3.24h-1.01v-4.48h.95Z"/>
        <path class="cls-1" d="M189.64,82.62h-1.01v-6.35h1.01v6.35Z"/>
        <path class="cls-1" d="M190.73,76.98c0-.15,.05-.28,.15-.38,.1-.1,.24-.15,.42-.15s.32,.05,.42,.15c.1,.1,.15,.23,.15,.38s-.05,.28-.15,.38c-.1,.1-.24,.15-.42,.15s-.32-.05-.42-.15c-.1-.1-.15-.23-.15-.38Zm1.07,5.64h-1.01v-4.48h1.01v4.48Z"/>
        <path class="cls-1" d="M194.47,81.34l.95-3.2h1.04l-1.55,4.48h-.87l-1.56-4.48h1.04l.96,3.2Z"/>
        <path class="cls-1" d="M199,82.7c-.64,0-1.15-.2-1.55-.6-.4-.4-.59-.94-.59-1.6v-.12c0-.45,.09-.85,.26-1.2,.17-.35,.42-.62,.73-.82,.31-.2,.66-.29,1.04-.29,.61,0,1.08,.19,1.41,.58,.33,.39,.5,.94,.5,1.65v.41h-2.92c.03,.37,.15,.66,.37,.88,.22,.21,.49,.32,.82,.32,.46,0,.84-.19,1.13-.56l.54,.52c-.18,.27-.42,.47-.72,.62-.3,.15-.64,.22-1.01,.22Zm-.12-3.83c-.28,0-.5,.1-.67,.29-.17,.19-.28,.46-.32,.81h1.92v-.07c-.02-.34-.11-.59-.27-.76-.16-.17-.38-.26-.65-.26Z"/>
      </g>
      <g>
        <path class="cls-1" d="M161.71,97.31v1.09h.79v.74h-.79v2.5c0,.17,.03,.29,.1,.37,.07,.08,.19,.11,.36,.11,.12,0,.23-.01,.35-.04v.78c-.23,.06-.45,.09-.66,.09-.77,0-1.16-.43-1.16-1.28v-2.54h-.74v-.74h.74v-1.09h1Z"/>
        <path class="cls-1" d="M162.95,100.59c0-.44,.09-.83,.26-1.18s.42-.62,.73-.81c.31-.19,.68-.28,1.08-.28,.6,0,1.09,.19,1.47,.58,.38,.39,.58,.91,.61,1.55v.24c0,.44-.08,.84-.25,1.18s-.41,.62-.73,.81c-.32,.19-.68,.29-1.09,.29-.63,0-1.14-.21-1.52-.63-.38-.42-.57-.98-.57-1.68v-.05Zm1,.09c0,.46,.1,.82,.29,1.08,.19,.26,.46,.39,.79,.39s.6-.13,.79-.4c.19-.26,.28-.65,.28-1.16,0-.45-.1-.81-.29-1.08s-.46-.4-.79-.4-.59,.13-.78,.39c-.19,.26-.29,.65-.29,1.17Z"/>
        <path class="cls-1" d="M171.89,100.68c0,.7-.16,1.25-.47,1.66-.31,.41-.74,.62-1.28,.62s-.93-.19-1.22-.57l-.05,.48h-.91v-6.36h1.01v2.31c.29-.34,.68-.51,1.17-.51,.55,0,.97,.2,1.29,.61s.47,.97,.47,1.7v.06Zm-1-.09c0-.49-.09-.85-.26-1.09s-.42-.36-.75-.36c-.44,0-.74,.19-.92,.57v1.84c.18,.39,.49,.58,.93,.58,.31,0,.56-.12,.73-.35s.26-.59,.27-1.06v-.13Z"/>
        <path class="cls-1" d="M174.25,101.43l.91-3.04h1.07l-1.78,5.16c-.27,.75-.74,1.13-1.39,1.13-.15,0-.31-.02-.48-.08v-.78h.19c.25,.01,.45-.03,.57-.13s.23-.25,.3-.46l.15-.38-1.57-4.45h1.08l.95,3.04Z"/>
        <path class="cls-1" d="M180.1,103.66h-3.79v-.79h3.79v.79Z"/>
        <path class="cls-1" d="M182.48,102.15c.25,0,.46-.07,.62-.22,.17-.15,.25-.33,.26-.54h.95c-.01,.28-.1,.54-.26,.78-.16,.24-.38,.43-.66,.57s-.58,.21-.9,.21c-.63,0-1.12-.2-1.49-.61s-.55-.97-.55-1.68v-.1c0-.68,.18-1.23,.55-1.64,.36-.41,.86-.61,1.49-.61,.53,0,.97,.16,1.3,.47,.34,.31,.51,.72,.53,1.22h-.95c-.01-.26-.1-.47-.26-.63-.16-.17-.37-.25-.63-.25-.33,0-.58,.12-.75,.35-.18,.24-.27,.59-.27,1.07v.16c0,.49,.09,.85,.26,1.09,.18,.24,.43,.36,.76,.36Z"/>
        <path class="cls-1" d="M186.02,98.39l.03,.47c.31-.37,.75-.55,1.29-.55,.6,0,1.01,.23,1.23,.69,.33-.46,.78-.69,1.37-.69,.49,0,.86,.14,1.1,.41,.24,.27,.36,.68,.37,1.21v2.94h-1.01v-2.91c0-.28-.06-.49-.19-.62-.12-.13-.33-.2-.62-.2-.23,0-.42,.06-.56,.18-.15,.12-.25,.28-.3,.48v3.07s-1,0-1,0v-2.95c-.01-.53-.28-.79-.81-.79-.4,0-.69,.16-.86,.49v3.24h-1.01v-4.48h.95Z"/>
      </g>
      <g>
        <path class="cls-1" d="M164.89,117.9h-1.88v5.18h-1.04v-5.18h-1.86v-.84h4.78v.84Z"/>
        <path class="cls-1" d="M164.54,120.8c0-.44,.09-.83,.26-1.18s.42-.62,.73-.81c.31-.19,.68-.28,1.08-.28,.6,0,1.09,.19,1.47,.58,.38,.39,.58,.91,.61,1.55v.24c0,.44-.08,.84-.25,1.18s-.41,.62-.73,.81c-.32,.19-.68,.29-1.09,.29-.63,0-1.14-.21-1.52-.63-.38-.42-.57-.98-.57-1.68v-.05Zm1,.09c0,.46,.1,.82,.29,1.08,.19,.26,.46,.39,.79,.39s.6-.13,.79-.4c.19-.26,.28-.65,.28-1.16,0-.45-.1-.81-.29-1.08s-.46-.4-.79-.4-.59,.13-.78,.39c-.19,.26-.29,.65-.29,1.17Z"/>
        <path class="cls-1" d="M173.48,120.88c0,.7-.16,1.25-.47,1.66-.31,.41-.74,.62-1.28,.62s-.93-.19-1.22-.57l-.05,.48h-.91v-6.36h1.01v2.31c.29-.34,.68-.51,1.17-.51,.55,0,.97,.2,1.29,.61s.47,.97,.47,1.7v.06Zm-1-.09c0-.49-.09-.85-.26-1.09s-.42-.36-.75-.36c-.44,0-.74,.19-.92,.57v1.84c.18,.39,.49,.58,.93,.58,.31,0,.56-.12,.73-.35s.26-.59,.27-1.06v-.13Z"/>
        <path class="cls-1" d="M175.84,121.64l.91-3.04h1.07l-1.78,5.16c-.27,.75-.74,1.13-1.39,1.13-.15,0-.31-.02-.48-.08v-.78h.19c.25,.01,.45-.03,.57-.13s.23-.25,.3-.46l.15-.38-1.57-4.45h1.08l.95,3.04Z"/>
        <path class="cls-1" d="M185.21,121.12c-.06,.64-.3,1.14-.71,1.5-.41,.36-.96,.54-1.65,.54-.48,0-.9-.11-1.27-.34s-.65-.55-.85-.97c-.2-.42-.3-.91-.31-1.46v-.56c0-.57,.1-1.07,.3-1.5,.2-.43,.49-.77,.87-1,.38-.23,.81-.35,1.31-.35,.66,0,1.2,.18,1.6,.54,.41,.36,.64,.87,.71,1.53h-1.04c-.05-.43-.18-.75-.38-.94-.2-.19-.5-.29-.89-.29-.46,0-.8,.17-1.05,.5s-.37,.82-.38,1.46v.53c0,.65,.12,1.15,.35,1.49,.23,.34,.57,.51,1.02,.51,.41,0,.72-.09,.93-.28,.21-.18,.34-.49,.39-.92h1.04Z"/>
        <path class="cls-1" d="M186.99,118.6l.03,.47c.31-.37,.75-.55,1.29-.55,.6,0,1.01,.23,1.23,.69,.33-.46,.78-.69,1.37-.69,.49,0,.86,.14,1.1,.41,.24,.27,.36,.68,.37,1.21v2.94h-1.01v-2.91c0-.28-.06-.49-.19-.62-.12-.13-.33-.2-.62-.2-.23,0-.42,.06-.56,.18-.15,.12-.25,.28-.3,.48v3.07s-1,0-1,0v-2.95c-.01-.53-.28-.79-.81-.79-.4,0-.69,.16-.86,.49v3.24h-1.01v-4.48h.95Z"/>
      </g>
    </g>
  </g>
</svg>
