<?xml version="1.0" encoding="UTF-8"?>
<svg id="Layer_1" data-name="Layer 1" xmlns="http://www.w3.org/2000/svg" viewBox="0 0 252 144">
  <defs>
    <style>
      .cls-1, .cls-2, .cls-3, .cls-4 {
        fill: #fff;
      }

      .cls-5 {
        letter-spacing: -.1em;
      }

      .cls-2 {
        fill-rule: evenodd;
      }

      .cls-6 {
        fill: #f9db5b;
      }

      .cls-7 {
        fill: #73ccd4;
      }

      .cls-8 {
        letter-spacing: -.01em;
      }

      .cls-9 {
        letter-spacing: 0em;
      }

      .cls-10 {
        fill: #20bec7;
      }

      .cls-11 {
        letter-spacing: 0em;
      }

      .cls-12 {
        letter-spacing: -.1em;
      }

      .cls-13 {
        letter-spacing: 0em;
      }

      .cls-14 {
        letter-spacing: 0em;
      }

      .cls-15 {
        letter-spacing: 0em;
      }

      .cls-16 {
        fill: none;
        stroke: #fff;
        stroke-linecap: round;
        stroke-miterlimit: 10;
        stroke-width: 2px;
      }

      .cls-3 {
        font-family: Roboto-Medium, Roboto;
        font-size: 8.47px;
      }

      .cls-4 {
        font-family: Roboto-Black, Roboto;
        font-size: 18.31px;
      }

      .cls-17 {
        fill: #1e1e1e;
      }
    </style>
  </defs>
  <rect id="Background" class="cls-17" width="252" height="144"/>
  <g id="Logo">
    <path class="cls-6" d="M23.52,47.07l6.02,5.87-3.85,3.75c-1.67,1.63-2.27,4.03-1.54,6.25,.72,2.22,2.61,3.81,4.92,4.15l5.39,.78-1.45,8.43c-.41,2.4,.56,4.78,2.52,6.21,1.97,1.43,4.53,1.62,6.68,.48l7.53-3.96,2.37,4.8c1.04,2.1,3.13,3.4,5.47,3.4,2.34,0,4.43-1.3,5.47-3.4l2.37-4.8,7.53,3.96c.91,.48,1.93,.73,2.96,.73,1.34,0,2.63-.42,3.73-1.22,1.97-1.43,2.94-3.81,2.52-6.21l-1.45-8.43,5.39-.78c2.31-.34,4.2-1.93,4.92-4.15,.72-2.22,.13-4.62-1.54-6.25l-3.85-3.75,6.02-5.87c1.74-1.7,2.36-4.19,1.61-6.5-.75-2.31-2.71-3.97-5.12-4.32l-8.4-1.22,.93-5.44c.4-2.3-.53-4.59-2.43-5.97-1.05-.76-2.29-1.17-3.58-1.17-.98,0-1.96,.24-2.84,.7l-4.84,2.55-3.72-7.53c-1.08-2.18-3.26-3.54-5.69-3.54-2.43,0-4.61,1.36-5.69,3.54l-3.72,7.53-4.84-2.55c-.9-.47-1.87-.71-2.84-.71-1.26,0-2.51,.39-3.58,1.17-1.89,1.37-2.82,3.66-2.43,5.97l.93,5.44-8.4,1.22c-2.41,.35-4.37,2-5.12,4.32-.75,2.31-.14,4.81,1.61,6.51Zm.96-5.67c.43-1.33,1.56-2.28,2.94-2.48l11.14-1.62-1.4-8.17c-.22-1.28,.3-2.56,1.35-3.33,1.05-.77,2.43-.87,3.58-.26l7.29,3.84,4.94-10.01h0c.62-1.25,1.87-2.03,3.27-2.03,1.4,0,2.65,.78,3.27,2.03l4.94,10.01,7.29-3.84c.5-.26,1.04-.39,1.59-.39,.7,0,1.4,.22,1.99,.65,1.05,.77,1.57,2.04,1.35,3.33l-1.4,8.17,11.14,1.62c1.38,.2,2.51,1.15,2.94,2.48,.43,1.33,.08,2.76-.92,3.74l-8,7.8,5.83,5.68c.93,.91,1.26,2.25,.86,3.49-.4,1.24-1.45,2.13-2.74,2.31l-8.13,1.18,1.91,11.16c.24,1.38-.32,2.74-1.45,3.57-.64,.46-1.39,.7-2.14,.7-.58,0-1.16-.14-1.7-.42l-9.98-5.25-3.6,7.29c-.58,1.17-1.74,1.89-3.05,1.9-1.3,0-2.47-.73-3.05-1.89h0s-3.6-7.29-3.6-7.29l-9.98,5.25c-1.24,.65-2.71,.54-3.84-.28-1.13-.82-1.69-2.19-1.45-3.57l1.91-11.16-8.13-1.18c-1.29-.19-2.34-1.07-2.74-2.31-.4-1.24-.07-2.58,.86-3.49l5.83-5.68-8-7.8c-1-.98-1.35-2.41-.92-3.74Z"/>
    <g>
      <path class="cls-7" d="M47.42,63.4l-5.39-.78-.61,3.55,5.38,.78,2.45,4.96,3.19-1.68-2.45-4.97c-.5-1-1.45-1.7-2.56-1.86Z"/>
      <path class="cls-7" d="M57.6,37.33c.54,0,1.09-.13,1.58-.39l4.8-2.53-1.59-3.23-4.79,2.52-4.79-2.52-1.59,3.23,4.8,2.53c.5,.26,1.04,.39,1.58,.39Z"/>
      <path class="cls-7" d="M36.18,50.25l2.58,2.51,3.96-3.86c.8-.78,1.17-1.91,.98-3.01l-.91-5.3-3.56,.52,.91,5.29-3.95,3.85Z"/>
      <path class="cls-7" d="M65.22,65.26l-2.45,4.97,3.19,1.68,2.45-4.96,5.38-.78-.61-3.55-5.39,.78c-1.11,.16-2.06,.86-2.56,1.86Z"/>
      <path class="cls-7" d="M72.49,48.9l3.96,3.86,2.58-2.51-3.95-3.85,.91-5.29-3.56-.52-.91,5.3c-.19,1.1,.18,2.23,.98,3.01Z"/>
      <path class="cls-7" d="M35.53,61.67l-5.15-.75,3.67-3.58,1.93-1.89-2.58-2.51-5.83,5.68c-.93,.91-1.26,2.25-.86,3.49,.4,1.24,1.45,2.13,2.74,2.31l8.13,1.18,.61-3.55-2.67-.39Z"/>
      <path class="cls-7" d="M69.79,31.36l4.63-2.43-.89,5.2-.46,2.66,3.56,.52,1.4-8.17c.22-1.28-.3-2.56-1.35-3.33-.6-.43-1.29-.65-1.99-.65-.54,0-1.08,.13-1.59,.39l-7.29,3.84,1.59,3.23,2.39-1.26Z"/>
      <path class="cls-7" d="M81.15,57.34l3.67,3.58-5.15,.75-2.67,.39,.61,3.55,8.13-1.18c1.29-.19,2.34-1.07,2.74-2.31,.4-1.24,.07-2.58-.86-3.49l-5.83-5.68-2.58,2.51,1.93,1.89Z"/>
      <path class="cls-7" d="M59.86,76.11l-2.26,4.58-2.26-4.58-1.2-2.42-3.19,1.68,3.6,7.29h0c.58,1.17,1.75,1.9,3.05,1.9,1.3,0,2.47-.73,3.05-1.9l3.6-7.29-3.19-1.68-1.2,2.42Z"/>
      <path class="cls-7" d="M41.67,34.12l-.89-5.2,4.63,2.43,2.39,1.26,1.59-3.23-7.29-3.84c-1.15-.61-2.53-.51-3.58,.26-1.05,.77-1.57,2.04-1.35,3.33l1.4,8.17,3.56-.52-.46-2.66Z"/>
    </g>
    <path class="cls-10" d="M33.41,52.94l2.58,2.51,2.87,2.8-.65,3.8-.61,3.55-1.91,11.16c-.24,1.38,.32,2.74,1.45,3.57,1.13,.82,2.6,.93,3.84,.28l9.98-5.25,3.19-1.68,3.46-1.82,3.46,1.82,3.19,1.68,9.98,5.25c.54,.28,1.12,.42,1.7,.42,.75,0,1.5-.24,2.14-.7,1.13-.82,1.69-2.19,1.45-3.57l-1.91-11.16-.61-3.55-.65-3.8,2.87-2.8,2.58-2.51,8-7.8c1-.98,1.35-2.41,.92-3.74-.43-1.33-1.56-2.28-2.94-2.48l-11.14-1.62-3.56-.52-3.89-.57-1.78-3.61-1.59-3.23-4.94-10.01c-.62-1.25-1.87-2.03-3.27-2.03-1.4,0-2.65,.78-3.27,2.03h0s-4.94,10.01-4.94,10.01l-1.59,3.23-1.78,3.61-3.89,.57-3.56,.52-11.14,1.62c-1.38,.2-2.51,1.15-2.94,2.48-.43,1.33-.08,2.76,.92,3.74l8,7.8Zm3.13-11.44l2.67-.39,3.56-.52,3.9-.57c1.19-.17,2.21-.92,2.75-1.99l1.79-3.62,1.59-3.23,1.19-2.42,3.6-7.29,3.6,7.29,1.19,2.42,1.59,3.23,1.79,3.62c.53,1.08,1.56,1.82,2.74,1.99l3.9,.57,3.56,.52,2.67,.39,8.13,1.18-5.83,5.68-1.93,1.88-2.58,2.51-2.88,2.81c-.86,.84-1.25,2.04-1.05,3.23l.65,3.82,.61,3.55,.46,2.66,1.4,8.17-7.29-3.83-2.39-1.26-3.19-1.68-3.47-1.82c-.53-.28-1.11-.42-1.7-.42s-1.17,.14-1.7,.42l-3.47,1.82-3.19,1.68-2.39,1.26-7.29,3.83,1.4-8.17,.46-2.66,.61-3.55,.65-3.82c.2-1.18-.19-2.39-1.05-3.23l-2.88-2.81-2.58-2.51-1.93-1.88-5.83-5.68,8.13-1.18Z"/>
  </g>
  <text class="cls-4" transform="translate(21.6 117.31)"><tspan class="cls-5" x="0" y="0">T</tspan><tspan class="cls-14" x="9.68" y="0">o</tspan><tspan class="cls-13" x="19.96" y="0">b</tspan><tspan x="30.17" y="0">y Cm</tspan></text>
  <line id="Divider" class="cls-16" x1="126" y1="16.2" x2="126" y2="124.2"/>
  <g id="Socials">
    <g id="Icons">
      <g id="Facebook">
        <path class="cls-1" d="M151.2,120.64c0-3.98-3.22-7.2-7.2-7.2s-7.2,3.22-7.2,7.2c0,3.59,2.63,6.57,6.07,7.11v-5.03h-1.83v-2.08h1.83v-1.59c0-1.8,1.07-2.8,2.72-2.8,.79,0,1.61,.14,1.61,.14v1.77h-.91c-.89,0-1.17,.56-1.17,1.12v1.35h2l-.32,2.08h-1.68v5.03c3.44-.54,6.07-3.52,6.07-7.11Z"/>
      </g>
      <path id="Youtube" class="cls-1" d="M150.9,17.82c-.17-.62-.65-1.11-1.27-1.27-1.12-.3-5.63-.3-5.63-.3,0,0-4.5,0-5.63,.3-.62,.17-1.11,.65-1.27,1.27-.3,1.12-.3,3.47-.3,3.47,0,0,0,2.34,.3,3.47,.17,.62,.65,1.11,1.27,1.27,1.12,.3,5.63,.3,5.63,.3,0,0,4.5,0,5.63-.3,.62-.17,1.11-.65,1.27-1.27,.3-1.12,.3-3.47,.3-3.47,0,0,0-2.34-.3-3.47Zm-8.34,5.63v-4.32l3.74,2.16-3.74,2.16Z"/>
      <path id="Twitter" class="cls-1" d="M149.73,97.46c0,.13,0,.25,0,.38,0,3.9-2.97,8.41-8.41,8.41h0c-1.61,0-3.18-.46-4.53-1.33,.23,.03,.47,.04,.7,.04,1.33,0,2.62-.44,3.67-1.27-1.26-.02-2.37-.85-2.76-2.05,.44,.09,.9,.07,1.33-.05-1.38-.28-2.37-1.49-2.37-2.9v-.04c.41,.23,.87,.36,1.34,.37-1.3-.87-1.7-2.59-.91-3.94,1.5,1.85,3.71,2.97,6.09,3.09-.24-1.03,.09-2.1,.85-2.82,1.19-1.12,3.06-1.06,4.18,.13,.66-.13,1.3-.37,1.88-.72-.22,.68-.68,1.26-1.3,1.63,.59-.07,1.16-.23,1.7-.46-.4,.59-.9,1.11-1.47,1.53Z"/>
      <g id="Twitch">
        <g id="Layer_1-2" data-name="Layer 1-2">
          <path class="cls-1" d="M140.4,72.94l-2.57,2.57v9.26h3.09v2.57l2.57-2.57h2.06l4.63-4.63v-7.2h-9.77Zm8.74,6.69l-2.06,2.06h-2.06l-1.8,1.8v-1.8h-2.31v-7.71h8.23v5.66Z"/>
          <rect class="cls-1" x="146.57" y="75.77" width="1.03" height="3.09"/>
          <rect class="cls-1" x="143.74" y="75.77" width="1.03" height="3.09"/>
        </g>
      </g>
      <path id="Discord" class="cls-1" d="M148.99,34.43c-.92-.42-1.9-.73-2.93-.91-.02,0-.04,0-.05,.02-.13,.23-.27,.52-.36,.75-1.11-.17-2.21-.17-3.29,0-.1-.24-.24-.52-.37-.75,0-.02-.03-.03-.05-.02-1.03,.18-2.01,.49-2.93,.91,0,0-.01,0-.02,.02-1.87,2.79-2.38,5.51-2.13,8.2,0,.01,0,.03,.02,.03,1.23,.9,2.42,1.45,3.6,1.82,.02,0,.04,0,.05-.02,.28-.38,.52-.78,.74-1.2,.01-.02,0-.05-.02-.06-.39-.15-.76-.33-1.12-.54-.03-.02-.03-.06,0-.08,.08-.06,.15-.12,.22-.17,.01-.01,.03-.01,.05,0,2.36,1.08,4.91,1.08,7.24,0,.02,0,.03,0,.05,0,.07,.06,.15,.12,.22,.18,.03,.02,.02,.06,0,.08-.36,.21-.73,.39-1.12,.53-.03,0-.04,.04-.02,.06,.22,.42,.46,.82,.74,1.2,.01,.02,.03,.02,.05,.02,1.18-.36,2.37-.91,3.6-1.82,.01,0,.02-.02,.02-.03,.3-3.11-.5-5.8-2.13-8.2,0,0-.01-.01-.02-.02Zm-7.38,6.58c-.71,0-1.29-.65-1.29-1.45s.57-1.45,1.29-1.45,1.31,.66,1.29,1.45c0,.8-.57,1.45-1.29,1.45Zm4.78,0c-.71,0-1.29-.65-1.29-1.45s.57-1.45,1.29-1.45,1.31,.66,1.29,1.45c0,.8-.57,1.45-1.29,1.45Z"/>
      <path id="GitHub" class="cls-2" d="M144,51.7c-3.98,0-7.2,3.22-7.2,7.2,0,3.18,2.06,5.88,4.92,6.83,.36,.07,.49-.16,.49-.35,0-.17,0-.62,0-1.22-2,.44-2.43-.97-2.43-.97-.33-.83-.8-1.05-.8-1.05-.65-.45,.05-.44,.05-.44,.72,.05,1.1,.74,1.1,.74,.64,1.1,1.69,.78,2.1,.6,.07-.47,.25-.78,.46-.96-1.6-.18-3.28-.8-3.28-3.56,0-.79,.28-1.43,.74-1.93-.07-.18-.32-.91,.07-1.91,0,0,.6-.19,1.98,.74,.57-.16,1.19-.24,1.8-.24,.61,0,1.23,.08,1.8,.24,1.37-.93,1.98-.74,1.98-.74,.39,.99,.15,1.72,.07,1.91,.46,.5,.74,1.15,.74,1.93,0,2.77-1.68,3.37-3.29,3.55,.26,.22,.49,.66,.49,1.33,0,.96,0,1.74,0,1.98,0,.19,.13,.42,.5,.35,2.86-.95,4.92-3.65,4.92-6.83,0-3.98-3.22-7.2-7.2-7.2Z"/>
    </g>
    <g id="Text">
      <text id="Youtube-2" data-name="Youtube" class="cls-3" transform="translate(159.93 23.76)"><tspan class="cls-12" x="0" y="0">T</tspan><tspan x="4.28" y="0">o</tspan><tspan class="cls-15" x="9.11" y="0">b</tspan><tspan class="cls-11" x="13.83" y="0">y Cm</tspan></text>
      <text id="Discord-2" data-name="Discord" class="cls-3" transform="translate(159.93 41.49)"><tspan class="cls-8" x="0" y="0">t</tspan><tspan x="2.69" y="0">o</tspan><tspan class="cls-15" x="7.52" y="0">b</tspan><tspan class="cls-9" x="12.24" y="0">y</tspan><tspan class="cls-11" x="16.31" y="0">cm</tspan></text>
      <text id="GitHub-2" data-name="GitHub" class="cls-3" transform="translate(159.93 61.2)"><tspan class="cls-8" x="0" y="0">t</tspan><tspan x="2.69" y="0">o</tspan><tspan class="cls-15" x="7.52" y="0">b</tspan><tspan class="cls-9" x="12.24" y="0">y</tspan><tspan class="cls-11" x="16.31" y="0">cm</tspan></text>
      <text id="Twitch-2" data-name="Twitch" class="cls-3" transform="translate(159.93 82.62)"><tspan class="cls-8" x="0" y="0">t</tspan><tspan x="2.69" y="0">o</tspan><tspan class="cls-15" x="7.52" y="0">b</tspan><tspan class="cls-9" x="12.24" y="0">y</tspan><tspan class="cls-11" x="16.31" y="0">cmli</tspan><tspan class="cls-9" x="32.45" y="0">v</tspan><tspan class="cls-11" x="36.59" y="0">e</tspan></text>
      <text id="Twitter-2" data-name="Twitter" class="cls-3" transform="translate(159.93 102.87)"><tspan class="cls-8" x="0" y="0">t</tspan><tspan x="2.69" y="0">o</tspan><tspan class="cls-15" x="7.52" y="0">b</tspan><tspan x="12.24" y="0">y_cm</tspan></text>
      <text id="Facebook-2" data-name="Facebook" class="cls-3" transform="translate(159.93 123.08)"><tspan class="cls-12" x="0" y="0">T</tspan><tspan x="4.28" y="0">o</tspan><tspan class="cls-15" x="9.11" y="0">b</tspan><tspan class="cls-11" x="13.83" y="0">y Cm</tspan></text>
    </g>
  </g>
</svg>